<svg id="Layer_1" data-name="Layer 1" xmlns="http://www.w3.org/2000/svg" viewBox="0 0 315.44 186.63"><defs><style>.cls-1{fill:#4e4e4f;}.cls-2,.cls-4{fill:#31baa6;}.cls-3,.cls-5{fill:#454242;}.cls-3,.cls-4{fill-rule:evenodd;}</style></defs><title>litmus7_logo_RS</title><path class="cls-1" d="M229.1,0,195.42,57.32c-10.86,18.42-18.35,19.33-37.77,19.33h0l33.69-57.32C202.19.91,209.69,0,229.1,0Zm-61,20.45H150.8l6.66-11.72C161.16,2.2,164.72,0,171.73,0h28.91c-12.07,20.27-22.25,20.45-32.5,20.45"/><path class="cls-2" d="M86.34,76.89,120,19.57C130.87,1.15,138.38.23,157.79.23h0L124.1,57.55C113.25,76,105.75,76.89,86.34,76.89Zm60.95-20.45h17.35L158,68.16c-3.71,6.52-7.27,8.73-14.28,8.73h-28.9c12.07-20.28,22.24-20.45,32.48-20.45"/><path class="cls-3" d="M173.43,96.18h11.9v24.6a4.69,4.69,0,0,0,4.93,4.86h10a4.69,4.69,0,0,0,4.94-4.86V96.18h11.89v24.11c0,5.35.35,14.18-11.89,14.18H185.33c-12.25,0-11.9-8.83-11.9-14.18Zm-47.73,0h31.4c8,0,11.82,6.19,11.82,9.58v28.71H157V110.86c0-4.06-1.07-5.94-6.24-5.94h-4.28v29.55H134.62V104.92h-4.19c-2.75,0-5.68,1-5.68,5v24.55H112.86V106.41c0-6.85,5.68-10.23,12.84-10.23m-77.63,0H60v38.29H48.07ZM0,96.18H11.89v24.6a4.7,4.7,0,0,0,4.95,4.86H43.55v8.83H11.89C-.35,134.47,0,125.64,0,120.29Zm92.28,8.74v29.55H80.38V104.92H65V96.18h43.18v8.74Zm159.2,18.45c1.94.87,1.79,2.27-.53,2.27H221.68v8.83h30.46c17.75,0,19.87-13.88,7.73-18.07l-24.77-8.93c-1.93-.87-1.78-2.45.37-2.45h30.77V96.18H235.78c-19.14,0-16.63,16.44-5.63,19.46Z"/><path class="cls-4" d="M285.85,134.47h-16l31.72-26.21c1.62-.74,1.95-2.89.15-3.24H270.45V96.18h30.47c20.15,0,15.57,16.68,8.53,19.76Z"/><path class="cls-5" d="M13.88,179.18l-5.3-10.59H3.81v10.59H0V154H9.75a7.89,7.89,0,0,1,5.67,2.05,7,7,0,0,1,2.13,5.3,6.73,6.73,0,0,1-1.39,4.33,6.8,6.8,0,0,1-3.62,2.35l5.79,11.12Zm-1.32-20.66a4.44,4.44,0,0,0-3.09-1.06H3.81v7.88H9.47a4.44,4.44,0,0,0,3.1-1.05,3.64,3.64,0,0,0,1.17-2.87A3.72,3.72,0,0,0,12.56,158.52Z"/><path class="cls-5" d="M24.48,171.27a5.3,5.3,0,0,0,1.2,3.67A4.25,4.25,0,0,0,29,176.28a5.93,5.93,0,0,0,2.4-.42,6.54,6.54,0,0,0,2-1.41l2.29,2.15a9.92,9.92,0,0,1-3,2.12,9.17,9.17,0,0,1-3.76.67,9.83,9.83,0,0,1-3.21-.49,6.47,6.47,0,0,1-2.53-1.57,7.42,7.42,0,0,1-1.69-2.86,13.12,13.12,0,0,1-.62-4.26A10,10,0,0,1,23,163.48a6.9,6.9,0,0,1,5.52-2.42,6.92,6.92,0,0,1,5.58,2.37,9.28,9.28,0,0,1,2,6.25v1.59Zm7.93-3.83a4.63,4.63,0,0,0-.38-1.12,3.55,3.55,0,0,0-1.35-1.64,3.89,3.89,0,0,0-2.18-.62,4,4,0,0,0-2.19.62,3.53,3.53,0,0,0-1.37,1.64,4.62,4.62,0,0,0-.34,1.06,10.07,10.07,0,0,0-.12,1.38h8.05A12.06,12.06,0,0,0,32.41,167.44Z"/><path class="cls-5" d="M45.31,179.18a4.55,4.55,0,0,1-3.63-1.45,5.14,5.14,0,0,1-1.27-3.53v-9.85h-2v-2.76h2v-5.44H44v5.44h3.46v2.76H44V174c0,1.39.66,2.09,2,2.09h1.48v3.07Z"/><path class="cls-5" d="M60.64,179.18v-1.62a6.16,6.16,0,0,1-2,1.41,7.51,7.51,0,0,1-2.72.42,6.54,6.54,0,0,1-4.81-1.62,5.36,5.36,0,0,1-1.41-3.85,4.78,4.78,0,0,1,1.59-3.75,6.71,6.71,0,0,1,4.59-1.41h4.73v-1.27a3.2,3.2,0,0,0-.93-2.54,4.53,4.53,0,0,0-3-.82,5.69,5.69,0,0,0-2.33.39,4.45,4.45,0,0,0-1.59,1.35l-2.36-2.23a6.74,6.74,0,0,1,2.68-2,10.36,10.36,0,0,1,3.74-.57q7.38,0,7.39,6.15v12Zm-.07-7.91h-4.2q-3.21,0-3.21,2.58c0,1.69,1.09,2.54,3.28,2.54a8,8,0,0,0,1.93-.19,3.35,3.35,0,0,0,1.43-.83,3.71,3.71,0,0,0,.77-2.65Z"/><path class="cls-5" d="M68.73,157.74v-3.81h3.82v3.81Zm.11,21.44V161.27h3.6v17.91Z"/><path class="cls-5" d="M82.08,179.18a4.64,4.64,0,0,1-3.67-1.39,5.14,5.14,0,0,1-1.24-3.55V154h3.61v20a2.35,2.35,0,0,0,.44,1.58,1.89,1.89,0,0,0,1.5.51h1.59v3.07Z"/><path class="cls-5" d="M101,177.42a10.28,10.28,0,0,1-6.53,2,14.85,14.85,0,0,1-5-.76,10.25,10.25,0,0,1-3.88-2.56l2.54-2.5A8.14,8.14,0,0,0,91,175.42a10.38,10.38,0,0,0,3.57.55,6.35,6.35,0,0,0,3.83-1,3.79,3.79,0,0,0,.37-5.46,3,3,0,0,0-1.06-.68,7.53,7.53,0,0,0-1.69-.38l-1.49-.21L93,168a8.45,8.45,0,0,1-4.77-2,6.31,6.31,0,0,1-1.83-4.81,6.85,6.85,0,0,1,2.26-5.35,8.85,8.85,0,0,1,6.14-2,12.91,12.91,0,0,1,4.35.67,10.39,10.39,0,0,1,3.46,2.19l-2.44,2.4a6.44,6.44,0,0,0-2.44-1.5,9.76,9.76,0,0,0-3-.44,4.89,4.89,0,0,0-3.38,1.1,3.63,3.63,0,0,0-1.22,2.82,2.94,2.94,0,0,0,1,2.33,5.39,5.39,0,0,0,2.82,1.17l1.49.21,1.37.21a12.51,12.51,0,0,1,2.81.69A7.08,7.08,0,0,1,101,177.42Z"/><path class="cls-5" d="M107.23,157.74v-3.81H111v3.81Zm.11,21.44V161.27h3.6v17.91Z"/><path class="cls-5" d="M126.69,179.18V168.27a4,4,0,0,0-1-3,3.53,3.53,0,0,0-2.61-1,3.69,3.69,0,0,0-2.67,1,4,4,0,0,0-1,3v10.91h-3.6V161.27h3.53v1.81a6.21,6.21,0,0,1,4.77-2,6.08,6.08,0,0,1,4.41,1.63,5.24,5.24,0,0,1,1.4,2.19,9.15,9.15,0,0,1,.4,2.86v11.44Z"/><path class="cls-5" d="M146.56,184.53a7.51,7.51,0,0,1-5.6,2.1,9.88,9.88,0,0,1-3.48-.53,8.65,8.65,0,0,1-2.84-1.83l2.29-2.3a6.41,6.41,0,0,0,1.77,1.22,5.23,5.23,0,0,0,2.12.37,3.83,3.83,0,0,0,3.18-1.29,5.11,5.11,0,0,0,1-3.27v-2.29A5.45,5.45,0,0,1,143,178.3a6.76,6.76,0,0,1-2.56.46,5.77,5.77,0,0,1-4.27-1.59,6,6,0,0,1-1.61-2.93,23.8,23.8,0,0,1,0-8.69,6,6,0,0,1,1.61-2.93,5.81,5.81,0,0,1,4.31-1.56,6.61,6.61,0,0,1,2.61.48,5.46,5.46,0,0,1,2.09,1.64v-1.91h3.49v17.81A7.47,7.47,0,0,1,146.56,184.53ZM144.9,167.7a5.9,5.9,0,0,0-.5-1.73,2.81,2.81,0,0,0-1.11-1.23,4.17,4.17,0,0,0-3.81,0,2.83,2.83,0,0,0-1.12,1.23,6.23,6.23,0,0,0-.51,1.73,15.81,15.81,0,0,0-.14,2.19,15.6,15.6,0,0,0,.14,2.19,6.13,6.13,0,0,0,.51,1.73,2.91,2.91,0,0,0,1.12,1.24,4.17,4.17,0,0,0,3.81,0,2.89,2.89,0,0,0,1.11-1.24,5.81,5.81,0,0,0,.5-1.73,17.59,17.59,0,0,0,.12-2.19A17.82,17.82,0,0,0,144.9,167.7Z"/><path class="cls-5" d="M164.27,179.18v-1.8a6.73,6.73,0,0,1-9.18.39,5.37,5.37,0,0,1-1.4-2.19,9.23,9.23,0,0,1-.4-2.86V161.27h3.6v10.92a4,4,0,0,0,1,3,3.54,3.54,0,0,0,2.6,1,3.71,3.71,0,0,0,2.67-1,4,4,0,0,0,1-3V161.27h3.6v17.91Z"/><path class="cls-5" d="M177.44,179.18a4.64,4.64,0,0,1-3.67-1.39,5.19,5.19,0,0,1-1.24-3.55V154h3.61v20a2.35,2.35,0,0,0,.44,1.58,1.89,1.89,0,0,0,1.5.51h1.59v3.07Z"/><path class="cls-5" d="M192.38,179.18v-1.62a6.16,6.16,0,0,1-2,1.41,7.51,7.51,0,0,1-2.72.42,6.55,6.55,0,0,1-4.81-1.62,5.36,5.36,0,0,1-1.41-3.85,4.78,4.78,0,0,1,1.59-3.75,6.71,6.71,0,0,1,4.59-1.41h4.73v-1.27a3.2,3.2,0,0,0-.93-2.54,4.53,4.53,0,0,0-3-.82,5.69,5.69,0,0,0-2.33.39,4.45,4.45,0,0,0-1.59,1.35l-2.36-2.23a6.74,6.74,0,0,1,2.68-2,10.36,10.36,0,0,1,3.74-.57q7.38,0,7.39,6.15v12Zm-.07-7.91h-4.2q-3.21,0-3.21,2.58c0,1.69,1.09,2.54,3.28,2.54a8,8,0,0,0,1.93-.19,3.35,3.35,0,0,0,1.43-.83,3.71,3.71,0,0,0,.77-2.65Z"/><path class="cls-5" d="M210.43,165.48a4.49,4.49,0,0,0-1.22-.92,3.31,3.31,0,0,0-1.46-.28,3.35,3.35,0,0,0-2.53,1.11,4.1,4.1,0,0,0-1,2.91v10.88h-3.6V161.27h3.53v1.95a5.07,5.07,0,0,1,2-1.56,6.9,6.9,0,0,1,5.1-.21,5.6,5.6,0,0,1,1.94,1.31Z"/><path class="cls-5" d="M215.09,157.74v-3.81h3.82v3.81Zm.11,21.44V161.27h3.6v17.91Z"/><path class="cls-5" d="M229,179.18a4.55,4.55,0,0,1-3.63-1.45,5.14,5.14,0,0,1-1.28-3.53v-9.85h-2v-2.76h2v-5.44h3.61v5.44h3.46v2.76h-3.46V174c0,1.39.66,2.09,2,2.09h1.49v3.07Z"/><path class="cls-5" d="M240.45,182.75a5.8,5.8,0,0,1-1.3,2.22,4.17,4.17,0,0,1-1.63,1,6.54,6.54,0,0,1-2.05.3H234V183h.92a2.65,2.65,0,0,0,1.66-.41,3.17,3.17,0,0,0,.92-1.5l1-2.79-6.25-17.06h3.81l4.28,12.61,4.16-12.61h3.85Z"/><path class="cls-5" d="M272.52,179.18v-11H262.31v11H258.5V154h3.81v10.74h10.21V154h3.82v25.15Z"/><path class="cls-5" d="M292.41,179.18v-1.8a6.75,6.75,0,0,1-9.19.39,5.35,5.35,0,0,1-1.39-2.19,9.22,9.22,0,0,1-.41-2.86V161.27H285v10.92a4,4,0,0,0,1,3,3.53,3.53,0,0,0,2.6,1,3.67,3.67,0,0,0,2.66-1,3.93,3.93,0,0,0,1-3V161.27h3.6v17.91Z"/><path class="cls-5" d="M315,174.68a6.07,6.07,0,0,1-1.61,3.12,5,5,0,0,1-1.89,1.17,7.15,7.15,0,0,1-2.49.42,6.79,6.79,0,0,1-2.63-.47,5.84,5.84,0,0,1-2.1-1.65v1.91h-3.53V154h3.6v9.05a5.29,5.29,0,0,1,2.07-1.58,7.17,7.17,0,0,1,2.63-.44,6.82,6.82,0,0,1,2.47.43,5.17,5.17,0,0,1,1.87,1.16,6.07,6.07,0,0,1,1.61,3.11,21.55,21.55,0,0,1,.41,4.45A21.89,21.89,0,0,1,315,174.68Zm-3.32-6.84a5.5,5.5,0,0,0-.53-1.83,3,3,0,0,0-1.15-1.27,3.53,3.53,0,0,0-1.91-.46,3.64,3.64,0,0,0-1.92.46,2.89,2.89,0,0,0-1.15,1.25,6.15,6.15,0,0,0-.53,1.82,20.64,20.64,0,0,0,0,4.8,6.38,6.38,0,0,0,.53,1.84,2.94,2.94,0,0,0,1.15,1.27,3.64,3.64,0,0,0,1.92.46,3.53,3.53,0,0,0,1.91-.46,3.07,3.07,0,0,0,1.15-1.29,5.69,5.69,0,0,0,.53-1.85,23.46,23.46,0,0,0,0-4.74Z"/></svg>